# xmcd
#
# Track frame offsets:
#	150
#	12488
#	24717
#	37367
#	51456
#	62762
#	75147
#	89470
#	100805
#	113960
#	124486
#	139436
#
# Disc length: 2036 seconds
#
# Revision: 2
# Processed by: cddbd v1.5.2PL0 Copyright (c) Steve Scherf et al.
# Submitted via: audiograbber 1.83.01
#
DISCID=ae07f20c
DTITLE=John Murphy - Drive Safely On Your Way
DYEAR=1900
DGENRE=
TTITLE0=Drive Safely On Your Way
TTITLE1=My Sweet Galway Rose
TTITLE2=So Many Years Ago
TTITLE3=Sunday's Child
TTITLE4=Banagher On The Shannon
TTITLE5=She's Too Good To Be True
TTITLE6=The Place I Call Home
TTITLE7=The Image Of Me
TTITLE8=Truck Drivin' Man
TTITLE9=Old Ireland Free Once More
TTITLE10=Will The Circle Be Unbroken
TTITLE11=Sing Me Back Home
EXTD=
EXTT0=
EXTT1=
EXTT2=
EXTT3=
EXTT4=
EXTT5=
EXTT6=
EXTT7=
EXTT8=
EXTT9=
EXTT10=
EXTT11=
PLAYORDER=
